<?xml version="1.0" standalone="no"?>
<!DOCTYPE svg PUBLIC "-//W3C//DTD SVG 20010904//EN"
 "http://www.w3.org/TR/2001/REC-SVG-20010904/DTD/svg10.dtd">
<svg version="1.0" xmlns="http://www.w3.org/2000/svg"
 width="437.000000pt" height="555.000000pt" viewBox="0 0 437.000000 555.000000"
 preserveAspectRatio="xMidYMid meet">
<metadata>
Created by potrace 1.16, written by Peter Selinger 2001-2019
</metadata>
<g transform="translate(0.000000,555.000000) scale(0.100000,-0.100000)"
fill="#000000" stroke="none">
<path d="M2380 5475 c0 -15 -50 -36 -51 -22 0 7 -10 -10 -23 -38 -13 -27 -36
-65 -51 -84 -25 -29 -30 -31 -35 -16 -5 15 -11 11 -31 -21 -13 -21 -23 -42
-21 -46 1 -5 -2 -8 -7 -8 -5 0 -17 -3 -26 -6 -11 -5 -16 -2 -15 7 5 33 0 37
-35 29 -32 -7 -36 -6 -41 16 -3 13 -3 35 0 48 3 14 3 32 0 41 -6 14 -10 13
-31 -7 -34 -31 -53 -71 -53 -107 0 -32 -7 -36 -75 -44 -32 -3 -23 -10 28 -21
15 -4 27 -11 27 -16 0 -6 -3 -9 -7 -8 -20 4 -117 -34 -144 -57 -17 -14 -36
-22 -41 -19 -7 5 -9 0 -6 -13 3 -12 1 -27 -4 -34 -8 -11 -8 -10 -4 4 3 11 2
16 -4 12 -6 -3 -10 -15 -10 -26 0 -11 -7 -22 -15 -25 -8 -4 -12 -10 -9 -15 3
-5 -3 -9 -13 -9 -11 0 -14 -3 -7 -8 18 -12 -2 -49 -35 -67 -29 -14 -35 -13
-32 8 1 4 -7 4 -16 -1 -10 -5 -24 -7 -32 -4 -9 3 -11 0 -6 -7 14 -23 -25 -46
-71 -43 -35 3 -45 0 -56 -17 -17 -28 -32 -26 -46 5 -7 14 -16 23 -21 19 -5 -3
-13 -1 -16 5 -4 6 -14 8 -24 5 -11 -3 -20 3 -26 18 -8 17 -20 23 -52 25 -24 2
-43 7 -43 13 0 5 -7 9 -15 9 -16 0 -36 39 -28 53 7 12 -7 67 -18 67 -5 0 -9
-9 -9 -21 0 -14 -5 -19 -18 -17 -22 4 -30 48 -8 48 11 0 16 9 16 30 0 17 -3
30 -7 30 -5 0 -18 3 -30 6 -26 7 -49 -26 -35 -53 9 -18 -4 -90 -15 -80 -3 4
-21 -5 -39 -20 -19 -14 -34 -20 -34 -14 0 6 5 11 10 11 12 0 13 10 1 29 -6 10
-16 11 -36 4 -32 -10 -41 -38 -17 -48 28 -11 -7 -25 -61 -25 -35 0 -47 4 -44
13 2 6 17 12 33 12 19 0 30 6 32 18 3 14 -4 17 -37 17 -23 0 -41 5 -41 10 0 6
-18 10 -40 10 -33 0 -40 -3 -40 -20 0 -13 7 -20 20 -20 11 0 20 -6 20 -14 0
-11 -19 -16 -72 -19 -155 -11 -178 -22 -178 -85 0 -42 -16 -73 -34 -66 -7 3
-24 -8 -37 -23 -21 -26 -29 -28 -73 -25 -33 3 -46 1 -42 -7 4 -6 -10 -5 -39 3
-42 13 -45 13 -45 -5 0 -15 7 -19 34 -19 38 0 100 -23 89 -33 -3 -4 -33 -7
-65 -7 -32 0 -58 -4 -58 -10 0 -5 -18 -10 -40 -10 -59 0 -49 -18 13 -22 50 -3
52 -4 53 -33 2 -39 6 -277 5 -289 -1 -5 -10 -1 -21 9 -17 16 -20 16 -15 3 5
-13 -1 -17 -32 -20 -33 -3 -38 -6 -38 -28 0 -14 4 -28 8 -31 14 -10 27 -80 27
-143 0 -57 1 -58 18 -43 28 25 42 20 42 -14 0 -22 -4 -30 -14 -26 -10 4 -12 0
-9 -14 4 -12 17 -22 35 -26 24 -5 29 -10 24 -26 -3 -11 -1 -28 4 -38 14 -25 4
-44 -40 -73 l-39 -25 6 -58 c4 -35 13 -65 25 -77 20 -22 21 -20 18 52 -1 32 2
42 14 42 13 0 16 -12 16 -54 0 -30 -4 -58 -10 -61 -25 -16 4 -90 35 -90 23 0
24 -7 5 -53 -12 -32 -15 -34 -56 -30 -34 2 -43 0 -39 -10 3 -8 5 -16 5 -18 0
-2 6 -4 14 -4 19 0 37 -57 41 -127 4 -60 7 -67 33 -68 53 -4 62 -6 62 -14 0
-5 -9 -13 -20 -16 -11 -4 -18 -11 -15 -16 4 -5 0 -10 -7 -10 -35 -3 -166 2
-191 7 -26 5 -27 4 -27 -35 0 -30 -4 -41 -15 -41 -11 0 -15 11 -15 40 0 33 -3
40 -20 40 -22 0 -26 -10 -10 -26 7 -7 6 -19 -4 -39 -8 -15 -18 -45 -21 -67 -5
-28 -11 -38 -26 -38 -26 0 -24 -26 2 -33 23 -6 17 -27 -7 -27 -12 0 -14 -197
-14 -1471 l0 -1471 83 3 c112 4 453 -11 502 -22 22 -5 63 -9 91 -9 27 0 55 -5
62 -12 7 -7 12 -8 12 -4 0 5 7 3 15 -4 12 -10 15 -10 15 3 0 9 12 25 27 37 20
16 28 18 35 8 5 -9 8 -7 9 7 0 11 3 14 6 7 4 -10 8 -10 20 -1 12 11 13 8 7
-17 -4 -16 -4 -27 -1 -24 11 10 56 133 52 140 -3 5 0 21 6 37 11 29 31 117 54
238 19 104 40 185 60 230 9 22 21 70 26 107 13 106 42 214 50 192 3 -11 3 -26
-1 -34 -4 -8 -10 -33 -13 -55 -3 -22 -8 -49 -11 -60 -4 -11 0 -6 8 10 8 17 16
41 16 55 1 23 2 23 10 5 7 -18 8 -16 12 10 l5 30 8 -32 c4 -18 11 -33 16 -33
5 0 9 -6 9 -14 0 -7 7 -20 16 -27 9 -7 20 -23 25 -36 5 -15 14 -21 24 -17 16
7 21 -11 5 -21 -5 -3 -7 -12 -4 -20 3 -7 -4 -51 -15 -97 -11 -46 -29 -121 -40
-168 -11 -47 -29 -123 -40 -170 -52 -220 -57 -250 -46 -238 3 3 16 50 30 104
44 182 136 559 140 582 8 36 21 25 18 -15 -2 -21 0 -31 3 -23 3 8 8 22 11 30
4 11 8 8 12 -9 7 -25 31 -42 31 -21 0 6 -4 8 -10 5 -5 -3 -10 1 -10 9 0 9 8
14 20 13 16 -1 20 -8 20 -34 0 -17 3 -34 8 -36 4 -3 5 15 3 39 -2 30 1 44 9
44 7 0 10 -7 6 -15 -3 -8 -1 -25 4 -37 8 -22 9 -21 9 7 1 22 4 26 12 18 9 -9
9 -28 1 -75 -7 -42 -10 -48 -7 -18 3 41 2 43 -11 26 -17 -24 -17 -22 0 -70
l13 -38 16 73 c14 64 15 67 10 19 -4 -30 -7 -65 -7 -77 -1 -11 -4 -19 -8 -17
-4 3 -5 -10 -3 -28 4 -27 3 -29 -5 -13 -8 17 -9 16 -8 -10 4 -45 -12 -126 -23
-120 -5 3 -6 -1 -3 -9 3 -8 -4 -50 -16 -93 -32 -113 -52 -243 -35 -219 8 10
16 37 20 59 9 59 74 319 84 337 5 8 16 77 27 152 10 76 20 136 22 134 6 -7 6
-126 -1 -132 -3 -3 1 -21 10 -39 12 -26 13 -38 4 -61 l-11 -29 5 32 c2 18 0
35 -5 38 -21 13 -43 -129 -26 -170 8 -19 8 -19 -6 -1 -14 17 -15 17 -21 2 -4
-9 -1 -25 5 -36 14 -23 2 -41 -13 -20 -8 12 -10 10 -6 -7 3 -13 1 -26 -4 -29
-12 -7 -11 -34 1 -34 6 0 10 7 10 15 0 8 5 15 10 15 6 0 10 -10 10 -21 0 -17
3 -19 14 -10 11 9 16 6 24 -19 7 -18 7 -30 1 -30 -15 0 -10 -37 8 -55 26 -27
55 -86 49 -101 -3 -8 -2 -14 2 -14 15 0 51 130 67 243 7 51 15 56 19 13 2 -14
-1 -23 -5 -20 -5 3 -9 -10 -9 -28 -1 -18 -7 -60 -15 -93 -8 -33 -15 -65 -15
-71 0 -7 26 -9 75 -7 47 2 75 0 75 -7 0 -5 6 -10 14 -10 11 0 16 25 21 108 3
59 13 165 21 237 8 72 19 195 25 275 16 218 14 211 79 226 31 7 59 9 64 4 5
-5 8 -48 7 -97 -1 -48 1 -85 4 -81 4 4 7 24 6 45 -1 59 10 133 20 133 5 0 9
-6 9 -14 0 -10 7 -13 20 -11 37 7 60 -24 60 -81 0 -62 -36 -331 -48 -365 -5
-13 -12 -109 -15 -214 -3 -127 -2 -159 3 -95 4 52 8 136 9 185 0 50 5 95 10
100 14 14 61 366 61 452 0 16 23 12 74 -13 15 -7 42 -16 60 -19 57 -11 69 -28
67 -92 -2 -82 -20 -218 -32 -251 -6 -15 -22 -52 -37 -82 -35 -71 -40 -156 -16
-260 10 -44 21 -77 26 -72 5 5 1 30 -7 58 -8 27 -15 87 -16 133 0 68 4 92 24
135 47 98 59 151 73 329 5 70 8 77 25 72 10 -3 29 -8 42 -11 43 -11 77 -29 77
-41 0 -6 8 -9 20 -6 19 5 19 3 10 -22 -14 -36 -7 -42 24 -21 14 9 40 16 58 17
32 1 32 1 8 10 -19 6 -14 7 20 4 25 -2 50 -4 55 -5 6 0 3 -5 -5 -10 -10 -6
-11 -10 -2 -10 8 0 12 -24 13 -82 1 -71 3 -77 9 -43 5 22 10 64 11 92 1 29 6
53 11 53 4 0 8 -8 8 -17 0 -15 2 -15 9 -4 7 11 10 9 14 -10 4 -21 4 -21 6 -3
1 18 6 20 29 16 l27 -6 -25 -7 -25 -7 27 -1 c14 -1 28 5 31 12 4 9 7 9 18 -1
10 -9 10 -12 0 -12 -7 0 -9 -5 -6 -10 3 -6 15 -10 26 -10 18 0 20 -5 14 -47
l-5 -48 20 63 c11 34 25 62 31 62 6 0 7 -4 4 -10 -3 -5 -1 -10 4 -10 6 0 11 5
11 10 0 12 128 3 177 -12 51 -15 53 -27 63 -378 4 -157 8 -286 9 -287 3 -7 51
3 51 10 0 5 6 5 13 0 6 -6 35 -11 63 -12 40 -1 53 2 58 15 4 10 12 14 22 10 9
-4 22 -2 28 3 6 5 25 12 41 15 17 3 39 7 50 10 16 4 187 16 255 17 8 0 139 0
290 -1 151 -2 285 -2 298 -1 l22 1 0 205 0 205 -24 0 c-16 0 -26 7 -30 23 -7
28 -6 87 1 67 7 -18 23 -30 41 -30 8 0 12 15 12 44 0 41 -2 45 -27 49 l-28 4
28 2 27 1 0 101 c0 88 -2 100 -16 95 -9 -3 -38 -6 -65 -6 -37 0 -49 -4 -49
-15 0 -11 -11 -15 -40 -15 -29 0 -40 4 -40 15 0 8 8 15 18 15 9 0 24 6 33 13
15 11 11 15 -27 31 -25 10 -59 16 -79 14 -19 -2 -36 1 -38 7 -6 15 3 35 16 35
23 0 87 36 88 50 0 8 5 3 11 -12 7 -20 17 -28 34 -28 13 0 24 5 24 10 0 6 -7
10 -15 10 -10 0 -15 10 -15 30 0 29 -15 41 -22 18 -4 -12 -28 -3 -28 11 0 13
42 21 60 11 14 -7 16 -4 13 23 -2 18 0 26 3 20 7 -17 34 -16 57 2 18 13 16 14
-15 17 -18 2 -32 8 -31 14 3 16 -32 10 -51 -9 -26 -26 -38 -21 -31 12 6 27 4
30 -17 27 -13 -1 -29 -5 -35 -9 -7 -4 -16 0 -22 10 -8 15 -5 18 17 19 82 3 83
3 70 18 -7 8 -16 12 -19 10 -4 -2 -19 8 -33 21 -15 14 -32 23 -37 20 -5 -4 -9
-2 -9 4 0 5 -6 11 -12 14 -7 2 -2 2 11 0 13 -2 27 1 32 8 4 7 14 9 25 4 18 -7
18 -7 0 -14 -16 -6 -17 -9 -4 -13 17 -7 40 5 38 18 -1 5 -10 12 -21 16 -26 10
-19 33 10 32 11 0 21 3 21 8 0 4 -10 8 -22 9 -22 1 -22 1 2 9 23 7 23 8 -9 9
-26 1 -32 -2 -27 -14 3 -9 -1 -18 -9 -21 -7 -3 -11 -12 -8 -20 3 -9 -2 -14
-16 -14 -12 0 -21 5 -21 11 0 5 5 7 12 3 7 -4 8 -3 4 4 -4 7 -14 12 -22 12 -8
0 -14 6 -14 13 0 7 -9 23 -21 36 -19 20 -20 24 -5 40 9 10 16 25 16 34 0 9 4
18 10 22 13 8 1 35 -17 35 -12 0 -13 -3 -4 -14 10 -11 7 -17 -11 -30 -28 -20
-38 -20 -38 -2 0 7 8 16 18 18 15 4 18 13 16 49 -2 24 -4 54 -4 66 0 16 -5 21
-17 16 -14 -5 -15 -1 -10 25 4 19 2 32 -3 32 -6 0 -10 8 -10 18 -1 15 -2 15
-15 -2 -14 -19 -15 -18 -15 16 0 30 -4 37 -22 40 -22 3 -23 7 -20 68 2 53 7
68 25 82 19 16 20 18 4 18 -10 0 -15 4 -12 10 3 5 -1 10 -9 10 -23 0 -19 18 4
22 12 2 20 8 19 13 0 6 -5 9 -10 8 -5 -2 -9 0 -10 5 0 4 -2 18 -3 30 -2 13 3
26 11 29 7 3 10 9 7 15 -3 5 -12 7 -20 4 -8 -3 -14 1 -14 9 0 8 7 15 15 15 26
0 16 27 -14 40 -20 8 -32 21 -36 42 -7 31 1 50 13 32 10 -14 50 -12 56 2 3 7
-4 14 -15 17 -25 7 -25 33 1 40 20 5 29 27 11 27 -5 0 -12 11 -15 25 -4 14
-11 25 -17 25 -6 0 -8 -8 -4 -18 3 -11 -1 -31 -9 -46 -11 -22 -15 -24 -20 -11
-5 14 -15 15 -61 10 -49 -7 -55 -5 -55 11 0 13 -3 15 -11 7 -15 -15 0 -61 24
-69 20 -6 19 -7 -6 -21 -15 -7 -27 -20 -27 -28 0 -8 -4 -15 -10 -15 -5 0 -10
-9 -10 -21 0 -16 -4 -19 -22 -14 -13 3 -18 3 -13 -2 14 -11 20 -57 6 -49 -6 4
-11 2 -11 -3 0 -15 13 -14 29 2 10 10 14 8 22 -6 6 -9 15 -15 20 -11 6 3 18
-1 28 -11 13 -10 27 -14 44 -10 19 5 28 2 37 -14 9 -17 8 -21 -5 -21 -8 0 -15
5 -15 11 0 8 -5 7 -16 -2 -14 -11 -18 -10 -30 6 -8 10 -17 15 -21 11 -4 -4 -3
-10 3 -14 23 -16 8 -37 -28 -40 -40 -3 -43 1 -39 58 1 24 1 24 -14 6 -12 -16
-15 -17 -15 -4 0 8 -9 27 -21 42 -18 22 -28 26 -75 26 -30 0 -54 3 -54 6 0 7
14 20 73 67 27 22 47 47 47 58 0 10 4 19 9 19 4 0 8 -10 7 -22 -2 -35 18 -52
44 -36 26 16 25 29 -1 57 -16 17 -19 25 -9 31 6 4 17 18 24 31 9 18 20 24 41
23 17 0 32 3 35 7 3 5 20 9 38 11 38 3 41 20 7 38 -23 12 -29 11 -55 -9 -31
-23 -50 -21 -50 5 0 12 -11 14 -50 11 -62 -5 -77 -17 -24 -18 33 -1 35 -2 14
-8 -40 -12 -80 6 -80 36 0 21 2 23 15 13 8 -6 20 -10 27 -7 9 4 7 6 -3 6 -16
1 -29 20 -29 41 0 5 9 12 21 15 16 5 19 12 15 31 -4 13 -2 24 3 24 10 0 19
-40 13 -58 -2 -7 -12 -12 -23 -12 -10 0 -19 -4 -19 -10 0 -5 8 -10 18 -10 10
0 23 -5 29 -11 13 -13 36 -3 28 12 -4 5 -1 9 5 9 7 0 14 -9 17 -20 7 -26 40
-34 84 -22 30 9 31 10 9 12 -14 1 -28 2 -33 1 -4 -1 -5 9 -3 21 14 62 12 73
-11 71 -27 -3 -29 4 -6 29 14 16 15 18 0 18 -21 0 -31 18 -19 33 5 7 10 32 11
57 1 25 4 53 7 63 7 22 -12 47 -37 47 -25 0 -24 8 4 30 l22 18 -22 31 c-13 16
-23 41 -23 54 0 19 -7 26 -31 31 -25 5 -30 10 -26 26 3 13 -3 24 -19 35 -13 8
-24 22 -24 30 0 8 -5 25 -11 39 -11 23 -25 32 -79 45 -18 5 -24 13 -23 29 2
16 -3 22 -17 22 -10 0 -23 7 -28 16 -6 11 -11 13 -16 5 -12 -19 -44 -12 -72
16 -25 25 -28 25 -40 9 -12 -17 -14 -16 -34 4 -12 12 -24 34 -26 48 -6 34 -9
36 -66 52 -27 7 -48 18 -48 25 0 7 -7 16 -16 19 -9 3 -12 11 -8 18 5 8 2 9
-11 4 -11 -4 -25 0 -36 10 -18 16 -19 16 -19 -4 0 -30 -26 -28 -34 3 -10 38
-30 31 -55 -18 -12 -23 -16 -25 -23 -12 -9 15 -53 14 -67 -1 -3 -4 1 -5 10 -2
13 5 15 -1 14 -30 -1 -21 0 -42 3 -49 2 -6 40 -29 85 -51 45 -21 109 -52 142
-68 33 -15 66 -28 73 -27 6 0 12 -3 12 -7 0 -5 16 -14 35 -20 19 -6 35 -16 35
-21 0 -5 6 -9 13 -9 13 0 117 -92 117 -104 0 -3 16 -26 35 -52 19 -25 35 -55
35 -68 0 -12 10 -49 21 -81 15 -41 22 -87 23 -142 1 -51 6 -87 14 -95 14 -14
16 -42 2 -33 -7 4 -9 -21 -7 -72 3 -43 8 -77 13 -75 5 1 9 7 9 13 0 6 15 13
33 14 17 2 32 -1 32 -6 0 -5 14 -9 31 -9 16 0 28 -4 25 -8 -3 -5 -19 -7 -35
-6 -19 1 -28 -2 -25 -8 4 -6 25 -8 51 -4 28 4 42 2 38 -4 -3 -6 -17 -10 -31
-10 -15 0 -24 -6 -24 -15 0 -8 -4 -15 -10 -15 -5 0 -10 6 -10 13 0 8 -14 12
-42 11 -32 -1 -63 -14 -118 -48 -41 -25 -86 -46 -100 -46 -61 -1 -70 -2 -75
-10 -10 -16 -45 2 -45 24 0 19 22 60 39 76 13 11 33 86 37 132 4 58 -3 81 -23
74 -11 -4 -11 -1 -3 14 11 21 10 22 -28 32 -8 2 -2 15 18 36 35 39 40 53 8 26
-62 -52 -106 -102 -112 -124 l-7 -25 20 24 c26 29 27 16 3 -22 -10 -15 -22
-24 -25 -20 -4 3 -7 -1 -7 -10 0 -9 -13 -39 -30 -67 -16 -28 -30 -54 -30 -59
0 -4 -10 -18 -22 -32 -12 -13 -30 -34 -40 -45 -11 -12 -21 -28 -22 -35 -11
-59 -30 -99 -52 -114 -14 -9 -23 -19 -20 -22 3 -3 12 0 20 7 11 8 7 -8 -10
-52 -14 -34 -34 -70 -44 -79 -11 -9 -16 -19 -13 -23 4 -3 -3 -6 -15 -6 -12 0
-22 -5 -22 -11 0 -5 -17 -17 -37 -25 -21 -8 -46 -19 -55 -24 -15 -9 -18 -6
-19 17 -1 23 -2 25 -7 8 -4 -11 -11 -27 -17 -36 -14 -21 -183 -80 -191 -67 -4
6 -12 1 -20 -13 -13 -23 -13 -23 -14 16 0 22 6 74 14 115 8 41 17 104 21 140
4 35 11 73 15 85 4 11 10 63 13 115 l6 95 -13 -91 c-7 -50 -16 -96 -19 -101
-3 -5 -9 -38 -12 -74 -7 -66 -42 -280 -52 -313 -4 -13 -7 -15 -13 -6 -5 9 -9
8 -13 -3 -3 -10 -14 -13 -31 -10 -15 3 -37 -2 -51 -11 -22 -15 -51 -23 -82
-25 -7 -1 -13 -9 -13 -18 -1 -15 -2 -16 -9 -3 -5 8 -5 39 0 70 20 130 50 373
45 377 -4 5 -15 -60 -46 -282 -15 -110 -25 -153 -37 -162 -9 -7 -19 -10 -24
-8 -4 3 -10 -1 -12 -7 -4 -10 -8 -10 -16 2 -8 12 -12 9 -20 -13 -18 -46 -24
-30 -18 46 l6 72 -13 -58 c-12 -51 -36 -99 -36 -72 0 6 -5 3 -10 -5 -5 -8 -10
-10 -10 -5 0 10 -71 12 -87 2 -11 -7 -9 12 28 243 17 102 41 228 54 280 14 52
29 135 35 183 24 195 41 243 106 304 36 33 44 37 39 20 -5 -18 -4 -19 5 -5 5
9 24 19 40 23 17 4 30 10 30 15 0 9 44 26 46 19 1 -2 11 4 22 14 12 11 26 16
33 11 7 -4 10 -3 6 3 -4 6 11 18 35 28 62 25 148 85 148 104 0 9 20 36 45 61
24 25 44 51 45 58 0 7 7 15 15 18 18 7 20 54 3 54 -9 0 -10 3 -2 8 6 4 16 16
22 27 10 19 11 19 21 -5 5 -14 10 -20 11 -15 4 21 -1 91 -8 110 -5 15 -8 11
-13 -20 l-6 -40 -2 40 c-1 30 -4 36 -11 25 -8 -12 -10 -11 -10 7 0 25 16 39
24 21 3 -7 2 7 -1 32 -3 26 -13 52 -24 62 -21 18 -26 33 -6 22 9 -6 9 -4 1 7
-6 8 -17 37 -23 64 -7 28 -21 65 -32 83 -23 41 -26 84 -4 76 9 -4 15 0 15 10
0 9 6 16 14 16 7 0 16 9 19 20 3 13 10 18 21 14 12 -5 15 -2 9 12 -4 12 -3 15
5 10 7 -4 12 -2 12 5 0 7 16 27 35 45 25 23 35 40 35 63 0 20 11 43 33 67 30
35 30 37 9 32 -15 -4 -22 -2 -19 5 2 7 11 11 21 9 9 -2 16 3 16 10 0 8 4 6 11
-4 5 -10 16 -15 24 -12 8 4 15 2 15 -4 0 -9 -28 -22 -55 -26 -5 0 -10 -10 -10
-21 -1 -30 -45 -114 -68 -130 -16 -11 -18 -17 -9 -25 6 -6 10 -7 7 -3 -3 3 4
12 15 20 11 8 20 21 20 29 0 17 16 19 24 2 3 -7 3 -2 0 11 -8 29 15 78 28 59
5 -8 6 -2 2 15 -5 21 -2 27 10 27 17 0 32 -42 21 -59 -3 -6 0 -11 7 -11 8 0
19 14 25 30 7 18 18 30 30 30 29 0 43 14 36 38 -4 17 -8 20 -19 11 -7 -6 -18
-8 -24 -4 -5 3 -10 1 -10 -4 0 -6 -4 -11 -10 -11 -5 0 -10 11 -10 24 0 19 -4
23 -20 19 -15 -4 -20 0 -20 16 0 24 10 27 28 9 9 -9 12 -9 12 0 0 7 -4 12 -10
12 -15 0 -12 19 5 36 13 14 15 13 13 -7 -2 -12 2 -24 8 -26 7 -2 11 11 10 36
-1 21 -4 37 -8 34 -5 -2 -8 3 -8 12 0 9 4 14 9 11 5 -3 8 13 8 37 0 41 13 132
28 191 6 23 5 27 -6 21 -12 -8 -12 -6 0 8 8 10 11 20 8 23 -8 8 63 174 75 174
4 0 5 7 1 16 -7 19 18 38 28 22 4 -7 11 3 16 22 5 18 15 36 22 38 9 3 11 0 6
-9 -5 -8 -4 -10 0 -6 5 4 11 20 12 35 2 15 14 36 26 46 16 14 17 18 5 13 -27
-10 -22 18 5 30 15 7 29 8 41 1 9 -5 22 -7 29 -4 7 2 5 5 -4 5 -23 1 -40 48
-35 96 2 22 -1 46 -7 53 -16 19 -13 102 4 114 11 8 11 9 -3 5 -11 -4 -18 1
-22 16 -3 12 -24 42 -47 67 -22 24 -48 58 -56 74 -14 28 -14 30 8 47 13 10 32
19 41 19 23 0 34 20 11 21 -11 0 -13 3 -5 6 7 3 19 0 26 -6 16 -13 27 -4 19
15 -7 20 -60 17 -113 -7 -28 -12 -46 -16 -48 -10 -2 6 -10 11 -18 11 -8 0 -14
5 -14 10 0 6 -7 10 -15 10 -8 0 -15 5 -15 11 0 8 -5 8 -15 -1 -14 -11 -19 -7
-16 13 2 13 -27 8 -43 -8 -13 -13 -15 -13 -19 7 l-4 23 -2 -22 c0 -13 -5 -23
-10 -23 -5 0 -11 10 -15 23 -5 19 -8 20 -17 7 -9 -12 -10 -12 -6 5 3 11 8 29
12 40 5 16 5 17 -4 5 -6 -8 -11 -10 -11 -4 0 22 -29 10 -41 -18 -15 -37 -32
-36 -24 1 6 30 -4 35 -33 17 -7 -4 -16 -5 -20 -1 -3 3 0 10 8 15 11 7 8 10
-13 10 -15 0 -37 -9 -49 -20 -32 -29 -46 -25 -64 20 -9 22 -21 41 -28 41 -6 1
-18 2 -26 3 -12 1 -14 14 -12 64 3 53 1 62 -13 62 -12 0 -15 5 -11 16 5 14 4
15 -9 4 -13 -11 -19 -9 -38 6 -22 19 -22 19 -4 -2 19 -23 23 -49 5 -38 -7 5
-9 2 -6 -7 3 -8 -4 -23 -15 -34 -11 -11 -16 -14 -12 -6 6 11 4 13 -9 8 -10 -4
-15 -3 -11 3 11 18 14 66 4 81 -5 8 -9 10 -9 4z m330 -1355 c0 -5 30 -8 68 -7
l67 2 3 -32 c2 -23 7 -30 18 -26 8 3 14 0 14 -6 0 -6 -5 -11 -11 -11 -7 0 -9
-10 -7 -25 5 -22 3 -23 -10 -13 -13 11 -14 10 -4 -9 16 -29 15 -38 -2 -24 -11
9 -15 7 -19 -10 l-6 -22 -25 24 c-14 13 -29 24 -33 24 -5 0 -29 22 -54 49 -41
43 -45 51 -35 72 11 23 36 33 36 14z m-940 -695 c-4 -28 -3 -42 3 -38 9 6 8
-26 -8 -187 -4 -48 -1 -39 17 51 14 71 27 62 52 -36 37 -142 65 -200 118 -246
27 -23 68 -69 90 -103 23 -33 52 -74 65 -89 35 -43 94 -148 90 -161 -2 -6 -18
4 -37 22 -18 18 -35 31 -37 28 -7 -6 29 -66 40 -66 4 0 0 -11 -10 -24 -10 -13
-22 -22 -26 -19 -15 9 -54 -45 -65 -88 -14 -59 -25 -173 -13 -139 8 21 9 19 8
-17 -1 -22 -4 -40 -7 -38 -3 2 -6 -42 -8 -98 -1 -70 -8 -119 -22 -157 -11 -31
-24 -90 -30 -131 -5 -41 -14 -99 -20 -129 -6 -30 -13 -74 -16 -98 -5 -44 -22
-98 -23 -74 -1 18 -19 15 -25 -5 -12 -39 6 96 24 176 32 151 48 243 65 381 9
74 25 196 36 270 13 92 17 153 11 190 l-7 55 -6 -80 c-13 -177 -62 -572 -78
-630 -5 -16 -15 -57 -22 -90 -7 -33 -19 -70 -27 -82 -8 -13 -12 -38 -10 -59
l4 -35 -19 23 c-17 22 -18 22 -8 1 6 -12 8 -30 5 -40 -5 -15 -4 -15 5 -3 6 8
11 11 11 5 0 -21 -17 -30 -61 -33 -66 -4 -78 17 -77 142 0 105 -7 134 -16 64
-12 -88 -13 -92 -15 -32 0 33 10 128 24 210 24 140 50 392 42 400 -2 2 -12
-60 -23 -138 -14 -109 -20 -135 -25 -108 -4 23 -6 11 -5 -35 0 -38 -7 -114
-17 -167 -9 -54 -17 -112 -17 -128 0 -18 -4 -29 -10 -25 -5 3 -10 19 -10 35 0
16 -4 32 -10 35 -5 3 -10 17 -10 30 0 18 -5 23 -20 22 -12 -1 -18 -7 -16 -14
3 -6 -3 -22 -14 -35 -15 -19 -17 -35 -13 -88 3 -36 6 -97 7 -137 0 -39 3 -70
5 -67 2 2 17 -14 33 -35 31 -42 60 -54 138 -56 25 -1 65 -2 89 -3 l44 -2 -21
-22 c-24 -26 -27 -35 -92 -218 -26 -74 -60 -166 -75 -205 -25 -64 -58 -171
-73 -235 -5 -22 -3 -24 11 -11 9 7 23 11 31 8 8 -3 27 5 43 19 29 25 69 41 80
31 11 -12 4 -148 -9 -157 -6 -5 -26 -175 -42 -350 -2 -25 -3 20 -1 100 2 80
11 179 19 220 19 90 26 160 16 160 -13 0 -34 -122 -45 -255 -10 -118 -17 -156
-28 -152 -6 2 -14 14 -18 28 -6 21 -7 21 -9 4 -1 -11 -6 4 -10 33 -5 32 -15
58 -26 66 -9 7 -14 18 -10 24 4 7 2 12 -5 12 -7 0 -9 3 -6 6 3 4 0 16 -8 28
-8 11 -15 33 -15 48 0 18 -5 28 -15 28 -8 0 -15 6 -15 14 0 7 -15 21 -32 30
-18 8 -26 16 -18 16 8 1 5 5 -8 11 -18 7 -22 14 -17 30 5 14 3 19 -3 15 -6 -4
-20 3 -30 14 l-20 21 -4 -30 c-3 -21 0 -31 9 -31 17 0 17 -14 -1 -29 -14 -12
-46 -5 -46 10 0 5 -7 9 -16 9 -13 0 -14 8 -8 47 4 27 10 49 15 51 4 2 6 14 3
27 -2 13 1 27 7 31 8 4 7 9 -2 15 -9 5 7 9 41 9 31 0 61 -5 68 -12 6 -6 15 -9
19 -5 3 4 3 10 0 13 -7 7 -81 21 -152 29 -51 5 -129 48 -155 85 -12 16 -22 43
-23 60 -1 16 -8 30 -14 30 -16 0 -17 27 -1 32 14 5 3 38 -12 38 -6 0 -9 -4 -5
-9 3 -5 1 -12 -4 -15 -5 -3 -11 1 -15 9 -3 8 -1 17 5 21 6 4 6 10 -1 19 -7 8
-9 24 -5 37 6 22 5 22 -9 4 -16 -19 -36 -14 -36 10 0 8 -7 17 -15 20 -8 4 -15
12 -15 20 0 8 -9 23 -19 33 -19 19 -20 19 -25 -17 -4 -20 -2 -52 3 -69 5 -18
6 -33 2 -33 -4 0 -13 21 -19 48 -6 26 -18 68 -26 94 -8 26 -12 50 -8 52 4 3 9
-7 10 -20 1 -14 9 -37 17 -52 l16 -27 -7 35 c-17 85 -14 177 7 165 6 -4 7 4 3
22 -8 34 -14 42 -14 20 0 -9 -5 -19 -10 -22 -7 -4 -9 2 -7 17 2 12 2 17 0 11
-7 -20 -25 -15 -21 5 3 9 -4 38 -13 64 -10 25 -21 69 -25 97 -5 42 -4 52 10
57 13 5 16 19 12 80 -2 41 0 71 5 68 5 -3 9 -16 9 -30 0 -13 4 -24 8 -24 7 0
16 -28 43 -135 7 -27 16 -56 22 -63 5 -7 7 -29 4 -50 -5 -25 -3 -32 3 -22 7
11 10 6 10 -21 0 -19 7 -44 16 -55 15 -19 15 -19 10 1 -4 18 -9 49 -22 125 -3
14 -18 79 -36 145 -25 97 -31 142 -32 232 0 61 2 109 7 106 20 -12 4 17 -17
31 -18 12 -26 12 -29 3 -3 -6 -6 -2 -6 10 -1 12 -10 27 -21 33 -33 17 -44 51
-45 135 -1 75 -1 77 11 45 l12 -35 1 30 c1 21 4 26 12 18 7 -7 10 -37 7 -78
-4 -66 -4 -67 14 -45 20 25 23 40 8 40 -5 0 -10 7 -10 16 0 8 4 13 9 10 5 -4
12 0 15 6 3 7 4 4 1 -8 -3 -12 1 -27 10 -34 11 -9 14 -22 10 -38 -5 -22 -4
-23 10 -9 8 9 15 20 15 25 0 6 6 12 13 15 18 7 38 -28 30 -50 -3 -10 -2 -15 2
-10 12 10 44 -61 45 -99 0 -17 7 -37 15 -44 23 -19 26 -8 10 36 -8 21 -24 72
-35 112 -12 39 -25 72 -31 72 -21 0 -41 76 -55 209 -7 75 -14 157 -14 182 0
33 -5 49 -16 53 -13 5 -14 16 -9 63 4 32 9 66 11 76 3 9 1 17 -5 17 -6 0 -11
-9 -11 -20 0 -11 -4 -20 -9 -20 -4 0 -8 13 -7 29 1 16 4 27 8 24 4 -2 5 2 2
10 -3 9 -14 13 -27 10 -22 -4 -22 -4 -2 11 11 8 25 20 32 25 15 14 63 -49 66
-88 1 -15 7 -27 13 -24 5 2 16 -12 24 -32 7 -19 27 -47 43 -62 l29 -28 -20 37
c-12 20 -32 54 -45 75 -44 72 -59 112 -48 131 10 16 10 16 11 -1 0 -10 11 -33
25 -51 14 -18 25 -41 25 -51 0 -11 5 -15 14 -12 10 4 13 1 10 -7 -3 -8 11 -42
30 -77 20 -35 36 -57 37 -49 0 10 3 8 9 -5 7 -15 9 -16 9 -4 1 9 -6 22 -14 29
-8 7 -15 23 -15 36 0 12 -4 26 -10 29 -5 3 -10 13 -10 21 0 8 -12 40 -27 70
-22 46 -28 52 -41 41 -13 -10 -15 -9 -10 11 4 12 3 20 -2 17 -4 -2 -8 7 -7 20
0 19 3 23 12 15 13 -11 45 -4 45 11 0 4 -7 12 -17 17 -14 8 -13 11 8 23 13 7
33 14 43 16 11 2 25 8 32 13 18 15 22 -36 21 -250 0 -140 -3 -178 -10 -157
-12 29 -25 35 -33 14 -6 -16 20 -70 29 -60 8 8 29 -45 29 -74 0 -12 4 -21 9
-20 5 1 20 -11 34 -28 25 -29 26 -29 19 -5 -3 14 -12 32 -19 40 -7 8 -10 21
-8 28 3 6 0 12 -5 12 -22 0 -35 114 -28 255 8 153 8 244 0 257 -3 4 -1 8 4 8
5 0 12 -9 15 -20 3 -13 10 -18 21 -14 10 4 18 0 22 -10 3 -9 12 -16 19 -16 7
0 20 -16 29 -35 9 -19 21 -37 27 -41 6 -3 7 -19 4 -36 -5 -20 -4 -28 3 -24 17
10 59 -50 72 -105 7 -28 10 -78 7 -110 -3 -33 -1 -59 4 -59 5 0 10 37 10 83 1
45 4 73 6 62 3 -10 11 -28 18 -40 7 -11 23 -51 35 -90 27 -85 25 -80 55 -134
18 -34 21 -49 14 -64 -6 -10 -9 -28 -6 -38 3 -10 1 -22 -4 -25 -11 -7 -12 -51
-1 -56 5 -1 -2 -46 -14 -98 -26 -106 -40 -188 -31 -179 4 3 13 34 21 70 8 35
19 78 25 94 6 17 22 68 36 115 14 47 30 93 35 103 6 9 7 17 2 17 -4 0 -9 23
-10 50 -1 28 -7 70 -13 93 -6 23 -13 61 -16 84 -3 24 -9 40 -14 37 -11 -6 -10
171 1 206 6 20 8 14 9 -26 1 -36 6 -54 16 -58 8 -3 15 0 15 7 0 8 4 6 10 -3 8
-13 10 -12 10 3 0 9 7 17 15 17 9 0 12 6 9 15 -4 9 0 15 10 15 9 0 16 5 16 11
0 6 -8 8 -19 4 -11 -3 -22 -2 -25 3 -3 6 2 9 12 8 9 0 16 5 14 12 -1 6 2 12 8
12 5 0 10 -7 10 -15 0 -8 11 -17 25 -21 13 -3 24 -9 23 -13 -2 -19 3 -31 15
-29 9 2 13 -41 17 -177 l6 -180 2 158 c1 96 6 157 12 157 6 0 10 -5 10 -11 0
-6 19 -34 42 -62 44 -52 168 -177 168 -169 0 3 9 -3 19 -12 11 -10 24 -15 30
-12 5 3 12 0 15 -6 4 -7 4 -3 2 10 -2 12 0 22 5 22 23 0 2 27 -96 125 -58 58
-105 112 -105 120 0 8 -10 19 -21 26 -44 23 -79 62 -79 88 0 14 -5 43 -11 64
-13 47 -40 49 -91 7 -45 -37 -82 -52 -131 -52 -31 1 -38 -3 -35 -16 2 -9 12
-16 22 -15 16 1 17 -7 14 -83 -2 -46 0 -84 5 -84 4 0 7 -14 7 -31 0 -20 -4
-29 -12 -27 -12 4 -16 17 -37 108 -5 19 -9 29 -10 22 -2 -29 -21 2 -22 36 -1
32 -2 34 -8 12 -8 -25 -8 -25 -15 7 -9 38 3 68 15 37 6 -16 8 -15 8 9 1 18 -4
27 -14 27 -9 0 -16 10 -17 28 0 17 -3 10 -7 -18 -6 -38 -8 -30 -15 58 -4 57
-6 105 -4 107 2 2 11 -10 20 -26 10 -17 13 -27 8 -24 -6 3 -10 -2 -10 -11 0
-10 3 -14 6 -11 10 9 46 -12 39 -23 -3 -5 -12 -7 -20 -4 -10 4 -12 0 -8 -16 4
-14 8 -18 13 -10 5 8 9 7 13 -4 4 -9 14 -16 22 -16 9 0 13 5 10 10 -3 6 1 10
9 10 9 0 16 7 16 15 0 8 6 15 14 15 8 0 17 10 19 23 4 19 4 18 6 -6 0 -16 -5
-30 -14 -33 -8 -4 -15 -12 -15 -19 0 -7 -6 -15 -12 -18 -7 -2 -9 -8 -5 -13 4
-5 12 -3 16 4 4 7 12 12 17 10 5 -1 24 1 43 5 28 6 32 10 22 20 -9 9 -14 9
-21 -3 -25 -39 -2 40 36 127 16 36 18 62 4 83 -7 11 -10 5 -10 -23 0 -23 -4
-36 -10 -32 -6 3 -10 -4 -10 -17 -1 -13 -6 -33 -13 -45 -11 -21 -12 -19 -12
20 2 66 51 148 67 109 5 -13 7 -10 7 10 1 35 11 59 22 52 5 -3 9 7 9 21 0 14
4 24 9 21 4 -3 13 6 19 19 17 36 20 31 12 -20z m763 -542 c-5 -14 -3 -15 7 -6
7 6 18 9 26 6 20 -7 -63 -85 -149 -138 -70 -44 -84 -60 -27 -30 52 27 32 8
-25 -24 -63 -36 -61 -35 -68 -17 -4 11 -1 13 10 9 13 -5 15 -2 10 11 -4 9 -3
15 2 11 5 -3 12 -1 16 5 3 5 0 10 -7 10 -7 0 4 17 24 38 20 20 54 57 74 81 38
43 64 59 96 60 12 1 16 -4 11 -16z m-1562 -78 c5 4 9 -16 9 -44 0 -27 5 -53
10 -56 8 -5 8 -11 1 -19 -6 -7 -8 -15 -5 -19 3 -3 8 -18 10 -34 2 -15 8 -55
14 -88 18 -111 23 -185 12 -185 -13 0 -23 26 -16 44 3 8 1 17 -5 21 -6 3 -11
17 -11 29 0 13 -7 29 -15 36 -8 7 -14 20 -13 29 2 9 -3 15 -9 14 -9 -2 -13 9
-13 32 0 28 -3 33 -17 28 -13 -5 -15 -3 -8 13 4 10 10 33 13 49 3 17 12 40 20
53 15 23 11 39 -7 27 -6 -3 -11 -14 -11 -23 0 -12 -3 -13 -12 -4 -8 8 -8 15 1
26 7 8 10 20 6 26 -3 5 1 13 10 16 8 4 15 11 14 18 -1 6 0 18 1 26 2 11 3 11
7 -3 2 -9 9 -15 14 -12z m2689 -1145 c-14 -11 -29 -20 -33 -20 -5 0 -5 -5 -1
-12 5 -8 2 -9 -9 -5 -15 6 -17 -3 -17 -78 0 -69 3 -86 18 -95 16 -9 16 -11 -1
-21 -16 -9 -17 -29 -17 -192 0 -180 -17 -376 -43 -467 -12 -45 -56 -117 -57
-93 0 7 -7 10 -15 7 -8 -4 -12 -10 -9 -15 3 -5 -2 -6 -10 -3 -9 3 -13 10 -10
15 3 5 -2 6 -10 3 -9 -3 -16 -10 -16 -15 0 -5 -7 -9 -15 -9 -8 0 -15 -4 -15
-10 0 -5 -9 -10 -20 -10 -11 0 -20 -4 -20 -9 0 -11 -52 -24 -97 -25 -32 -1
-44 9 -21 16 8 3 9 12 0 36 -7 19 -7 34 -1 37 5 4 9 14 9 23 -1 15 -2 15 -11
-1 -10 -18 -12 -18 -35 4 -13 12 -24 26 -24 30 0 4 18 15 40 25 22 10 40 21
40 26 0 4 -21 -2 -47 -15 -43 -21 -59 -18 -53 9 1 4 -2 10 -7 13 -20 13 -84
133 -79 146 3 8 1 15 -4 15 -15 0 -121 169 -118 188 2 11 -3 16 -13 14 -9 -1
-22 5 -30 14 -11 14 -10 18 6 31 11 7 29 12 40 9 25 -5 58 6 53 19 -3 10 72
29 80 20 3 -3 -2 -5 -11 -5 -9 0 -21 -9 -27 -20 -13 -25 -9 -25 37 0 27 14 40
17 50 8 8 -7 13 -7 13 0 0 17 37 2 62 -26 46 -52 89 -122 76 -123 -7 0 -4 -4
7 -9 29 -13 38 -12 32 4 -3 7 3 26 14 42 23 36 25 69 3 60 -8 -3 -13 -2 -10 3
8 12 -32 61 -50 61 -8 0 -14 4 -14 8 0 10 -70 36 -77 28 -3 -3 -18 2 -33 11
-22 12 -29 26 -34 61 -9 66 -7 120 4 127 6 3 54 11 108 17 113 12 157 27 312
107 122 62 151 73 110 41z m-2580 -376 c9 -22 13 -24 25 -14 9 8 15 8 15 2 0
-6 -6 -13 -12 -16 -10 -5 -10 -7 0 -12 18 -8 15 -27 -4 -20 -9 3 -12 2 -9 -5
4 -5 1 -17 -6 -25 -10 -12 -9 -13 5 -8 9 3 16 10 16 16 0 18 30 -21 58 -74 15
-29 33 -52 40 -51 16 4 16 -14 0 -20 -7 -3 -4 -6 6 -6 11 -1 27 -7 35 -14 9
-7 36 -21 61 -31 25 -10 52 -21 60 -26 19 -9 25 -57 11 -84 -6 -12 -13 -32
-15 -46 -3 -14 -5 -27 -6 -30 -2 -3 -2 -8 -1 -12 0 -5 -4 -8 -10 -8 -6 0 -9 6
-6 13 3 8 1 20 -4 28 -6 10 -9 7 -9 -13 0 -32 0 -31 -35 -18 -14 5 -24 14 -21
19 4 5 -4 7 -16 4 -18 -4 -20 -2 -8 6 8 5 12 12 10 13 -3 2 -17 12 -32 21 -16
10 -27 25 -27 35 1 16 2 16 6 0 2 -10 8 -18 13 -18 5 0 17 -3 27 -6 12 -4 14
-3 5 3 -7 5 -11 20 -10 33 2 17 -4 27 -21 36 -13 7 -27 18 -31 24 -4 7 -6 -9
-4 -36 l4 -49 -13 48 c-7 30 -16 46 -22 40 -5 -4 -3 0 4 10 11 14 11 20 1 32
-7 8 -19 15 -26 15 -8 0 -14 9 -14 21 0 11 -4 17 -10 14 -5 -3 -10 -2 -10 4 0
5 -3 18 -6 28 -5 17 -5 17 9 1 12 -16 14 -14 11 20 -1 20 -2 41 -3 46 -1 5 -7
3 -14 -3 -19 -15 -28 -3 -20 27 4 17 2 23 -6 18 -6 -4 -11 -3 -11 3 0 5 4 11
10 13 5 2 6 18 1 41 -10 43 -5 49 9 11z"/>
<path d="M1439 2641 c-8 -33 -12 -58 -7 -55 4 3 8 -7 8 -21 0 -36 -23 -27 -30
11 l-6 29 -6 -28 c-3 -15 -1 -49 4 -75 5 -26 11 -56 12 -67 2 -11 7 -33 12
-50 4 -16 7 -39 6 -50 -3 -17 -1 -18 8 -5 10 13 11 12 6 -3 -3 -10 -6 -24 -7
-30 0 -7 -11 12 -24 42 -14 29 -22 58 -18 65 3 6 2 7 -3 3 -8 -8 -46 57 -75
126 -6 15 -15 27 -21 27 -5 0 -8 -3 -6 -7 2 -5 9 -19 15 -33 6 -14 19 -42 28
-64 9 -21 18 -44 19 -50 1 -6 14 -29 29 -51 27 -39 36 -72 17 -60 -25 16 -6
-28 29 -67 22 -23 42 -57 46 -75 7 -36 102 -203 116 -203 15 0 10 16 -21 61
-20 29 -30 58 -31 84 -1 34 -2 36 -8 15 -8 -24 -8 -24 -25 14 -9 22 -16 56
-16 75 1 20 -1 54 -4 76 -3 22 -8 65 -10 95 -3 30 -10 88 -16 129 -5 40 -7
102 -4 137 4 35 5 64 3 64 -3 0 -11 -27 -20 -59z"/>
<path d="M1576 1489 c-29 -28 -49 -71 -36 -79 8 -5 6 -16 -4 -36 -9 -16 -27
-55 -42 -86 -26 -59 -42 -70 -63 -44 -7 8 -26 19 -43 25 -31 11 -31 11 -13 -9
10 -11 23 -20 29 -20 6 0 22 -7 34 -16 18 -13 21 -19 11 -30 -6 -8 -8 -14 -4
-14 4 0 3 -6 -3 -13 -6 -7 -13 -25 -16 -40 -2 -15 -7 -35 -10 -45 -3 -9 -7
-30 -10 -45 -8 -46 25 -29 44 23 9 25 22 58 28 73 7 16 12 37 12 48 0 10 5 19
10 19 6 0 10 6 10 14 0 8 8 17 17 20 14 6 15 9 4 15 -9 6 -10 14 -5 22 5 8 7
23 6 34 -2 11 5 38 14 60 10 22 17 46 15 53 -1 6 3 12 8 12 5 0 13 10 17 23 3
12 13 29 20 38 20 23 -5 21 -30 -2z"/>
<path d="M662 5260 c-11 -17 -23 -20 -97 -20 l-85 0 0 -44 c0 -30 5 -46 15
-50 12 -4 13 -11 5 -32 -6 -15 -8 -29 -5 -32 2 -3 0 -12 -7 -19 -9 -11 -9 -17
3 -24 21 -13 33 -6 43 27 21 66 32 84 68 106 21 13 38 29 38 36 0 7 15 12 43
12 23 0 37 4 31 8 -6 4 -14 17 -18 30 -9 27 -18 28 -34 2z"/>
<path d="M80 4605 c0 -8 -7 -15 -15 -15 -11 0 -15 -11 -15 -39 0 -36 -3 -40
-28 -44 -19 -3 -14 -4 16 -6 38 -1 42 -3 42 -26 0 -22 -4 -25 -40 -25 -22 0
-40 -4 -40 -10 0 -5 18 -10 39 -10 22 0 41 -4 43 -9 2 -5 14 -4 28 1 l25 9
-24 20 -24 20 21 15 c12 8 22 23 22 33 0 10 7 24 15 31 8 7 15 18 15 26 0 8
16 14 43 17 l42 4 -42 1 c-24 1 -43 7 -43 12 0 6 -18 10 -40 10 -29 0 -40 -4
-40 -15z"/>
<path d="M3223 4068 c-21 -10 -41 -63 -29 -75 3 -4 6 -1 6 5 0 7 7 12 15 12
20 0 19 -19 -1 -27 -10 -3 -14 -13 -11 -25 4 -12 -1 -22 -11 -25 -8 -4 -24
-15 -34 -25 -20 -20 -38 -24 -38 -8 0 6 -9 10 -20 10 -11 0 -20 -4 -20 -9 0
-5 9 -11 20 -14 32 -8 23 -24 -17 -32 -39 -7 -63 -21 -63 -36 0 -5 5 -9 10 -9
6 0 10 7 10 15 0 11 11 15 40 15 48 0 53 -15 8 -24 -28 -6 -30 -8 -15 -17 23
-13 22 -31 -3 -47 -25 -16 -26 -42 -1 -42 13 0 21 8 23 22 3 22 19 31 78 42
23 5 25 9 23 53 -2 35 0 41 6 23 4 -15 14 -24 24 -24 13 1 17 -7 17 -33 0 -30
3 -34 23 -31 15 2 21 9 19 21 -2 11 3 26 11 35 25 29 28 52 8 52 -21 0 -45 40
-39 66 2 11 11 18 21 16 14 -2 17 6 17 51 0 48 -3 55 -25 65 -14 7 -27 12 -28
11 -1 0 -12 -5 -24 -11z"/>
</g>
</svg>
